<mxfile host="app.diagrams.net" modified="2023-09-26T23:06:55.385Z" agent="Mozilla/5.0 (Windows NT 10.0; Win64; x64) AppleWebKit/537.36 (KHTML, like Gecko) Chrome/117.0.0.0 Safari/537.36 Edg/117.0.2045.41" version="21.8.2" etag="i1Mtfx5Z_POj1112QIuY" type="github">
  <diagram name="PÃ¡gina-1" id="4h9nnPSYufbXgdxhHOob">
    <mxGraphModel>
      <root>
        <mxCell id="0" />
        <mxCell id="1" parent="0" />
      </root>
    </mxGraphModel>
  </diagram>
</mxfile>
